<?xml version="1.0" standalone="no"?>
<!DOCTYPE svg PUBLIC "-//W3C//DTD SVG 20010904//EN"
 "http://www.w3.org/TR/2001/REC-SVG-20010904/DTD/svg10.dtd">
<svg version="1.0" xmlns="http://www.w3.org/2000/svg"
 width="700.000000pt" height="700.000000pt" viewBox="0 0 700.000000 700.000000"
 preserveAspectRatio="xMidYMid meet">
<metadata>
Created by potrace 1.14, written by Peter Selinger 2001-2017
</metadata>
<g transform="translate(0.000000,700.000000) scale(0.100000,-0.100000)"
fill="#000000" stroke="none">
<path d="M1619 5996 c-27 -89 -61 -195 -74 -236 -14 -41 -48 -149 -76 -240
-60 -193 -87 -280 -164 -525 -31 -99 -62 -200 -70 -225 -17 -55 -171 -548
-225 -720 -157 -502 -204 -652 -220 -705 -10 -33 -111 -357 -225 -720 -114
-363 -226 -723 -250 -800 -24 -77 -59 -189 -78 -250 -20 -60 -44 -139 -55
-175 -27 -86 -122 -392 -127 -408 -4 -10 65 -12 336 -10 l341 3 28 90 c16 50
56 178 90 285 34 107 70 222 80 255 9 33 66 213 124 400 59 187 127 403 151
480 24 77 199 637 389 1245 191 608 355 1132 365 1165 27 86 107 339 151 480
21 66 57 181 80 255 74 237 91 293 126 402 19 59 34 108 34 111 0 2 -153 4
-340 4 l-340 0 -51 -161z"/>
<path d="M3952 6096 c-18 -51 -235 -746 -285 -911 -9 -27 -34 -108 -57 -180
-23 -71 -73 -231 -111 -355 -38 -124 -90 -288 -114 -365 -93 -297 -486 -1552
-552 -1765 -19 -63 -52 -169 -73 -235 -38 -120 -98 -311 -151 -480 -108 -349
-224 -720 -244 -783 l-14 -42 341 2 341 3 44 140 c24 77 64 203 88 280 24 77
69 221 100 320 99 314 211 674 279 893 13 42 61 194 106 337 45 143 92 294
105 335 19 63 260 831 285 910 4 14 29 93 55 175 110 357 147 472 160 510 7
22 32 99 54 170 53 171 179 576 248 795 44 140 93 301 93 306 0 0 -152 1 -339
1 l-338 0 -21 -61z"/>
</g>
</svg>
